<svg width="226" height="208" viewBox="0 0 113 104" fill="none" xmlns="http://www.w3.org/2000/svg">
    <path d="M6.138 8H7.183L4.345 0.19H3.014L0.187 8H1.21L1.914 6.009H5.434L6.138 8ZM2.222 5.151L2.585 4.139C3.003 2.951 3.377 1.906 3.663 0.949C3.949 1.906 4.334 2.951 4.763 4.128L5.126 5.151H2.222ZM9.9434 2.434C8.6894 2.434 7.8424 3.094 7.8424 4.04C7.8424 4.942 8.3704 5.261 9.8114 5.569C10.6804 5.756 11.3294 5.921 11.3294 6.515C11.3294 7.054 10.8014 7.373 10.0974 7.373C9.4374 7.373 8.9534 7.197 8.1504 6.526L7.5894 7.142C8.4474 7.901 9.1294 8.154 10.0864 8.154C11.3954 8.154 12.2534 7.472 12.2534 6.471C12.2534 5.514 11.6154 5.129 10.2074 4.81C9.2174 4.59 8.7554 4.48 8.7554 4.007C8.7554 3.545 9.2064 3.204 9.9434 3.204C10.5264 3.204 10.9444 3.325 11.6484 3.864L12.1654 3.226C11.4394 2.643 10.8234 2.434 9.9434 2.434ZM15.2071 2.434C13.9531 2.434 13.1061 3.094 13.1061 4.04C13.1061 4.942 13.6341 5.261 15.0751 5.569C15.9441 5.756 16.5931 5.921 16.5931 6.515C16.5931 7.054 16.0651 7.373 15.3611 7.373C14.7011 7.373 14.2171 7.197 13.4141 6.526L12.8531 7.142C13.7111 7.901 14.3931 8.154 15.3501 8.154C16.6591 8.154 17.5171 7.472 17.5171 6.471C17.5171 5.514 16.8791 5.129 15.4711 4.81C14.4811 4.59 14.0191 4.48 14.0191 4.007C14.0191 3.545 14.4701 3.204 15.2071 3.204C15.7901 3.204 16.2081 3.325 16.9121 3.864L17.4291 3.226C16.7031 2.643 16.0871 2.434 15.2071 2.434ZM22.7912 6.46C22.1092 7.109 21.7022 7.362 21.0092 7.362C19.8322 7.362 19.3152 6.46 19.2602 5.459H23.3192C23.3302 5.36 23.3412 5.151 23.3412 5.041C23.3412 3.446 22.4612 2.434 20.8992 2.434C19.3152 2.434 18.3142 3.633 18.3142 5.327C18.3142 7.021 19.3482 8.154 20.9982 8.154C21.8782 8.154 22.5602 7.879 23.3522 7.032L22.7912 6.46ZM20.8882 3.193C21.8342 3.193 22.3622 3.82 22.4062 4.755H19.2822C19.4252 3.754 20.0082 3.193 20.8882 3.193ZM30.1852 2.434C29.3822 2.434 28.8542 2.797 28.5242 3.314C28.2602 2.786 27.7322 2.434 26.9622 2.434C26.2362 2.434 25.7302 2.72 25.4112 3.237V2.588H24.5202V8H25.4662V4.601C25.4662 3.754 25.9942 3.237 26.6982 3.237C27.4352 3.237 27.7762 3.71 27.7762 4.491V8H28.7222V4.601C28.7222 3.809 29.2062 3.237 29.9652 3.237C30.7022 3.237 31.0432 3.71 31.0432 4.491V8H31.9892V4.227C31.9892 3.204 31.3952 2.434 30.1852 2.434ZM36.186 2.445C35.372 2.445 34.767 2.775 34.393 3.347V0.19H33.447V8H34.338V7.186C34.712 7.802 35.328 8.143 36.186 8.143C37.561 8.143 38.573 7.01 38.573 5.294C38.573 3.578 37.583 2.445 36.186 2.445ZM36.043 7.329C35.075 7.329 34.36 6.592 34.36 5.294C34.36 4.007 35.064 3.248 36.043 3.248C36.989 3.248 37.605 4.073 37.605 5.294C37.605 6.515 36.978 7.329 36.043 7.329ZM40.7209 0.19H39.7749V8H40.7209V0.19ZM45.6553 2.588L45.0503 4.359C44.7533 5.25 44.4233 6.284 44.1703 7.054C43.9173 6.284 43.5763 5.239 43.2793 4.381L42.6743 2.588H41.6733L43.7083 8.286L43.6423 8.495C43.4113 9.177 43.1473 9.353 42.7293 9.353C42.5533 9.353 42.3443 9.331 42.1463 9.287L41.9813 10.013C42.2123 10.079 42.5203 10.123 42.8173 10.123C43.7633 10.123 44.1153 9.683 44.4453 8.748L46.6123 2.588H45.6553Z" fill="#98989D"/>
    <path d="M21.812 39H23.142L19.53 29.06H17.836L14.238 39H15.54L16.436 36.466H20.916L21.812 39ZM16.828 35.374L17.29 34.086C17.822 32.574 18.298 31.244 18.662 30.026C19.026 31.244 19.516 32.574 20.062 34.072L20.524 35.374H16.828ZM27.6072 31.916C26.6832 31.916 25.8992 32.28 25.4372 32.994V32.112H24.3032V39H25.5072V34.73C25.5072 33.708 26.2912 32.938 27.2852 32.938C28.3072 32.938 28.8672 33.526 28.8672 34.66V39H30.0712V34.282C30.0712 32.994 29.2872 31.916 27.6072 31.916ZM36.1087 32.112L35.3387 34.366C34.9607 35.5 34.5407 36.816 34.2187 37.796C33.8967 36.816 33.4627 35.486 33.0847 34.394L32.3147 32.112H31.0407L33.6307 39.364L33.5467 39.63C33.2527 40.498 32.9167 40.722 32.3847 40.722C32.1607 40.722 31.8947 40.694 31.6427 40.638L31.4327 41.562C31.7267 41.646 32.1187 41.702 32.4967 41.702C33.7007 41.702 34.1487 41.142 34.5687 39.952L37.3267 32.112H36.1087Z" fill="black"/>
    <rect x="1" y="23" width="1" height="24" fill="black"/>
    <path d="M16.534 61.06H15.246V71H16.534V61.06ZM22.0154 63.916C21.0914 63.916 20.3074 64.28 19.8454 64.994V64.112H18.7114V71H19.9154V66.73C19.9154 65.708 20.6994 64.938 21.6934 64.938C22.7154 64.938 23.2754 65.526 23.2754 66.66V71H24.4794V66.282C24.4794 64.994 23.6954 63.916 22.0154 63.916ZM37.4642 71L34.7342 66.926C36.1482 66.646 37.1142 65.624 37.1142 64.028C37.1142 62.152 35.7562 61.06 33.8942 61.06H29.7222V71H31.0102V67.01H33.3342L35.9942 71H37.4642ZM31.0102 62.138H33.6702C34.9862 62.138 35.8402 62.782 35.8402 64.028C35.8402 65.288 34.9862 65.932 33.6842 65.932H31.0102V62.138ZM43.882 69.04C43.014 69.866 42.496 70.188 41.614 70.188C40.116 70.188 39.458 69.04 39.388 67.766H44.554C44.568 67.64 44.582 67.374 44.582 67.234C44.582 65.204 43.462 63.916 41.474 63.916C39.458 63.916 38.184 65.442 38.184 67.598C38.184 69.754 39.5 71.196 41.6 71.196C42.72 71.196 43.588 70.846 44.596 69.768L43.882 69.04ZM41.46 64.882C42.664 64.882 43.336 65.68 43.392 66.87H39.416C39.598 65.596 40.34 64.882 41.46 64.882ZM50.4089 64.112L49.5549 66.646C49.1209 67.976 48.7709 69.082 48.5049 70.034C48.2389 69.082 47.8889 67.976 47.4549 66.646L46.6009 64.112H45.3409L47.7209 71H49.2469L51.6409 64.112H50.4089ZM53.9994 61.312H52.7954V62.754H53.9994V61.312ZM53.9994 64.112H52.7954V71H53.9994V64.112ZM61.1496 69.04C60.2816 69.866 59.7636 70.188 58.8816 70.188C57.3836 70.188 56.7256 69.04 56.6556 67.766H61.8216C61.8356 67.64 61.8496 67.374 61.8496 67.234C61.8496 65.204 60.7296 63.916 58.7416 63.916C56.7256 63.916 55.4516 65.442 55.4516 67.598C55.4516 69.754 56.7676 71.196 58.8676 71.196C59.9876 71.196 60.8556 70.846 61.8636 69.768L61.1496 69.04ZM58.7276 64.882C59.9316 64.882 60.6036 65.68 60.6596 66.87H56.6836C56.8656 65.596 57.6076 64.882 58.7276 64.882ZM71.1214 64.112L70.4354 66.688C70.0994 67.962 69.8474 69.04 69.6374 69.978C69.4274 69.04 69.1614 67.976 68.7974 66.688L68.0694 64.112H66.9354L66.2074 66.688C65.8574 67.962 65.5914 69.026 65.3674 69.95C65.1574 69.012 64.9194 67.962 64.5834 66.688L63.8974 64.112H62.6514L64.5834 71H66.0394L66.6414 68.816C67.0334 67.43 67.2854 66.394 67.4814 65.554C67.6774 66.408 67.9294 67.416 68.3214 68.802L68.9654 71H70.4214L72.3534 64.112H71.1214Z" fill="black" fill-opacity="0.5"/>
    <path d="M22.89 103L20.16 98.926C21.574 98.646 22.54 97.624 22.54 96.028C22.54 94.152 21.182 93.06 19.32 93.06H15.148V103H16.436V99.01H18.76L21.42 103H22.89ZM16.436 94.138H19.096C20.412 94.138 21.266 94.782 21.266 96.028C21.266 97.288 20.412 97.932 19.11 97.932H16.436V94.138ZM29.3078 101.04C28.4398 101.866 27.9218 102.188 27.0398 102.188C25.5418 102.188 24.8838 101.04 24.8138 99.766H29.9798C29.9938 99.64 30.0078 99.374 30.0078 99.234C30.0078 97.204 28.8878 95.916 26.8998 95.916C24.8838 95.916 23.6098 97.442 23.6098 99.598C23.6098 101.754 24.9258 103.196 27.0258 103.196C28.1458 103.196 29.0138 102.846 30.0218 101.768L29.3078 101.04ZM26.8858 96.882C28.0898 96.882 28.7618 97.68 28.8178 98.87H24.8418C25.0238 97.596 25.7658 96.882 26.8858 96.882ZM35.8346 96.112L34.9806 98.646C34.5466 99.976 34.1966 101.082 33.9306 102.034C33.6646 101.082 33.3146 99.976 32.8806 98.646L32.0266 96.112H30.7666L33.1466 103H34.6726L37.0666 96.112H35.8346ZM39.4252 93.312H38.2212V94.754H39.4252V93.312ZM39.4252 96.112H38.2212V103H39.4252V96.112ZM46.5754 101.04C45.7074 101.866 45.1894 102.188 44.3074 102.188C42.8094 102.188 42.1514 101.04 42.0814 99.766H47.2474C47.2614 99.64 47.2754 99.374 47.2754 99.234C47.2754 97.204 46.1554 95.916 44.1674 95.916C42.1514 95.916 40.8774 97.442 40.8774 99.598C40.8774 101.754 42.1934 103.196 44.2934 103.196C45.4134 103.196 46.2814 102.846 47.2894 101.768L46.5754 101.04ZM44.1534 96.882C45.3574 96.882 46.0294 97.68 46.0854 98.87H42.1094C42.2914 97.596 43.0334 96.882 44.1534 96.882ZM56.5472 96.112L55.8612 98.688C55.5252 99.962 55.2732 101.04 55.0632 101.978C54.8532 101.04 54.5872 99.976 54.2232 98.688L53.4952 96.112H52.3612L51.6332 98.688C51.2832 99.962 51.0172 101.026 50.7932 101.95C50.5832 101.012 50.3452 99.962 50.0092 98.688L49.3232 96.112H48.0772L50.0092 103H51.4652L52.0672 100.816C52.4592 99.43 52.7112 98.394 52.9072 97.554C53.1032 98.408 53.3552 99.416 53.7472 100.802L54.3912 103H55.8472L57.7792 96.112H56.5472ZM69.006 93.06H62.398V103H63.686V98.632H68.6V97.554H63.686V94.138H69.006V93.06ZM71.7045 93.312H70.5005V94.754H71.7045V93.312ZM71.7045 96.112H70.5005V103H71.7045V96.112ZM76.8807 95.916C75.9567 95.916 75.1727 96.28 74.7107 96.994V96.112H73.5767V103H74.7807V98.73C74.7807 97.708 75.5647 96.938 76.5587 96.938C77.5807 96.938 78.1407 97.526 78.1407 98.66V103H79.3447V98.282C79.3447 96.994 78.5607 95.916 76.8807 95.916ZM82.4096 93.312H81.2056V94.754H82.4096V93.312ZM82.4096 96.112H81.2056V103H82.4096V96.112ZM86.6338 95.916C85.0378 95.916 83.9598 96.756 83.9598 97.96C83.9598 99.108 84.6318 99.514 86.4658 99.906C87.5718 100.144 88.3978 100.354 88.3978 101.11C88.3978 101.796 87.7258 102.202 86.8298 102.202C85.9898 102.202 85.3738 101.978 84.3518 101.124L83.6378 101.908C84.7298 102.874 85.5978 103.196 86.8158 103.196C88.4818 103.196 89.5738 102.328 89.5738 101.054C89.5738 99.836 88.7618 99.346 86.9698 98.94C85.7098 98.66 85.1218 98.52 85.1218 97.918C85.1218 97.33 85.6958 96.896 86.6338 96.896C87.3758 96.896 87.9078 97.05 88.8038 97.736L89.4618 96.924C88.5378 96.182 87.7538 95.916 86.6338 95.916ZM94.285 95.916C93.403 95.916 92.647 96.252 92.185 96.896V93.06H90.981V103H92.185V98.73C92.185 97.708 92.969 96.938 93.963 96.938C94.985 96.938 95.545 97.526 95.545 98.66V103H96.749V98.282C96.749 96.994 95.951 95.916 94.285 95.916ZM103.888 101.04C103.02 101.866 102.502 102.188 101.62 102.188C100.122 102.188 99.4639 101.04 99.3939 99.766H104.56C104.574 99.64 104.588 99.374 104.588 99.234C104.588 97.204 103.468 95.916 101.48 95.916C99.4639 95.916 98.1899 97.442 98.1899 99.598C98.1899 101.754 99.5059 103.196 101.606 103.196C102.726 103.196 103.594 102.846 104.602 101.768L103.888 101.04ZM101.466 96.882C102.67 96.882 103.342 97.68 103.398 98.87H99.4219C99.6039 97.596 100.346 96.882 101.466 96.882ZM111.044 93.06V97.036C110.568 96.336 109.826 95.93 108.79 95.93C107.026 95.93 105.724 97.372 105.724 99.556C105.724 101.74 106.998 103.182 108.762 103.182C109.854 103.182 110.638 102.72 111.114 101.936V103H112.248V93.06H111.044ZM108.944 102.16C107.726 102.16 106.956 101.11 106.956 99.556C106.956 98.002 107.754 96.966 108.944 96.966C110.19 96.966 111.086 97.918 111.086 99.556C111.086 101.194 110.19 102.16 108.944 102.16Z" fill="black" fill-opacity="0.5"/>
</svg>
