<svg width="67" height="23" viewBox="0 0 67 23" fill="none" xmlns="http://www.w3.org/2000/svg">
    <path fill-rule="evenodd" clip-rule="evenodd" d="M0 0.879883V4.12259H6.9922C7.20508 4.12259 7.37744 4.29484 7.37744 4.50758V22.6331C7.37744 22.7692 7.4882 22.8799 7.62436 22.8799H10.3754C10.5118 22.8799 10.6226 22.7692 10.6226 22.6331V4.50758C10.6226 4.29484 10.7949 4.12259 11.0078 4.12259H18V0.879883H0Z" fill="#3F3F48"/>
    <path fill-rule="evenodd" clip-rule="evenodd" d="M59.3667 0.879883C59.6164 0.879883 59.8375 1.04052 59.9153 1.27783L67 22.8799H63.8282C63.689 22.8799 63.5654 22.7903 63.522 22.6574L57.4908 4.26703C57.4625 4.18091 57.3823 4.12259 57.2915 4.12259H56.7082C56.6177 4.12259 56.5375 4.18091 56.5089 4.26703L50.4777 22.6574C50.4344 22.7903 50.3108 22.8799 50.1715 22.8799H47L54.0844 1.27783C54.1623 1.04052 54.3836 0.879883 54.633 0.879883H59.3667Z" fill="#3F3F48"/>
    <path fill-rule="evenodd" clip-rule="evenodd" d="M28.4315 4.12043C28.4835 4.12043 28.5314 4.14797 28.5569 4.19252L39.0993 22.6574C39.1776 22.7948 39.3252 22.8799 39.485 22.8799H43L32.4126 4.34182C32.3562 4.24273 32.4285 4.12043 32.5438 4.12043L42.7419 4.12259V0.879883H25.2502C25.1122 0.879883 25 0.990304 25 1.12664V22.6331C25 22.7692 25.1122 22.8799 25.2502 22.8799H28.0376C28.1758 22.8799 28.2878 22.7692 28.2878 22.6331V4.26217C28.2878 4.18388 28.3521 4.12043 28.4315 4.12043Z" fill="#3F3F48"/>
</svg>
